<?xml version="1.0" encoding="utf-8"?>
<!-- Generator: Adobe Illustrator 23.1.1, SVG Export Plug-In . SVG Version: 6.00 Build 0)  -->
<svg version="1.1" id="Layer_1" xmlns="http://www.w3.org/2000/svg" xmlns:xlink="http://www.w3.org/1999/xlink" x="0px" y="0px"
	 viewBox="0 0 244.5 70.8" style="enable-background:new 0 0 244.5 70.8;" xml:space="preserve">
<style type="text/css">
	.st0{fill:#2A57A3;}
	.st1{fill:#E8B121;}
</style>
<g>
	<g>
		<g>
			<path class="st0" d="M66.7,34.7c-0.4-0.2-0.8-0.3-1.4-0.3c-0.7,0-1.1,0.1-1.5,0.4c-0.3,0.2-0.5,0.5-0.5,0.9c0,0.6,0.4,1,1.3,1.2
				l2.5,0.7c0.9,0.3,1.7,0.7,2.1,1.3s0.7,1.3,0.7,2.1c0,0.7-0.2,1.4-0.6,1.9c-0.4,0.5-0.9,1-1.7,1.3s-1.6,0.4-2.5,0.4
				c-1.1,0-2.1-0.2-2.9-0.6c-0.9-0.4-1.5-0.9-1.9-1.5c0-0.1-0.1-0.1-0.1-0.2c0-0.1,0.1-0.2,0.2-0.3l1.2-0.8c0.1-0.1,0.2-0.1,0.3-0.1
				c0.1,0,0.2,0,0.2,0.1c0.4,0.5,0.8,0.9,1.2,1.1c0.4,0.2,0.9,0.3,1.6,0.3c0.7,0,1.3-0.1,1.7-0.3c0.4-0.2,0.6-0.6,0.6-1
				c0-0.3-0.1-0.5-0.3-0.7c-0.2-0.2-0.5-0.4-1-0.5l-2.4-0.7c-0.9-0.3-1.6-0.7-2.1-1.3c-0.5-0.6-0.8-1.3-0.8-2.1
				c0-0.7,0.2-1.3,0.6-1.8c0.4-0.5,0.9-1,1.6-1.3s1.5-0.5,2.4-0.5c0.9,0,1.7,0.2,2.5,0.5c0.7,0.3,1.3,0.7,1.7,1.2
				c0.1,0.1,0.1,0.2,0.1,0.2c0,0.1,0,0.1-0.1,0.2l-1.3,1c-0.1,0-0.1,0.1-0.1,0.1c-0.1,0-0.1-0.1-0.3-0.2
				C67.4,35.1,67.1,34.9,66.7,34.7z"/>
			<path class="st0" d="M84.1,32.6c0.2,0,0.3,0.1,0.3,0.3v11.2c0,0.1,0,0.2-0.1,0.3c-0.1,0.1-0.2,0.1-0.3,0.1h-2
				c-0.1,0-0.2,0-0.3-0.1c-0.1-0.1-0.1-0.1-0.1-0.3V33c0-0.2,0.1-0.3,0.3-0.3H84.1z"/>
			<path class="st0" d="M96.6,44.4c-0.1-0.1-0.1-0.2-0.1-0.3V33c0-0.2,0.1-0.3,0.3-0.3h3.3c0.1,0,0.2,0,0.3,0s0.1,0.1,0.1,0.2
				l2.4,6.7c0,0.1,0.1,0.1,0.1,0.1c0,0,0.1,0,0.1-0.1l2.3-6.6c0.1-0.2,0.2-0.4,0.4-0.4h3.4c0.2,0,0.2,0.1,0.2,0.3v11.2
				c0,0.1,0,0.2-0.1,0.3c-0.1,0.1-0.2,0.1-0.3,0.1H107c-0.1,0-0.2,0-0.3-0.1s-0.1-0.1-0.1-0.2v-8c0-0.1,0-0.1,0-0.1s-0.1,0-0.1,0.1
				l-2.8,8c-0.1,0.2-0.2,0.3-0.3,0.3h-1.3c-0.2,0-0.3-0.1-0.4-0.3L99,36.4c0-0.1-0.1-0.1-0.1-0.1c0,0-0.1,0-0.1,0.1v7.9
				c0,0.1,0,0.2-0.1,0.2c0,0-0.1,0.1-0.2,0.1h-1.6C96.8,44.5,96.7,44.5,96.6,44.4z"/>
			<path class="st0" d="M130.2,39c-0.8,0.6-1.8,1-3.1,1h-2.4c-0.1,0-0.2,0.1-0.2,0.2v4c0,0.2-0.1,0.4-0.4,0.4h-2
				c-0.1,0-0.2,0-0.3-0.1c0-0.1-0.1-0.1-0.1-0.2V33c0-0.2,0.1-0.3,0.3-0.3h4.8c0.9,0,1.7,0.1,2.4,0.4c0.7,0.3,1.3,0.7,1.7,1.2
				c0.4,0.6,0.6,1.2,0.6,2C131.4,37.5,131,38.4,130.2,39z M128,35.1c-0.4-0.3-0.8-0.4-1.4-0.4h-1.8c-0.1,0-0.2,0-0.2,0.1
				c0,0-0.1,0.1-0.1,0.2v2.7c0,0.1,0,0.2,0,0.2s0.1,0.1,0.2,0.1h2c0.6,0,1-0.1,1.3-0.4c0.3-0.3,0.5-0.7,0.5-1.2
				C128.5,35.8,128.3,35.3,128,35.1z"/>
			<path class="st0" d="M143.3,32.6h2.3c0.2,0,0.3,0.1,0.3,0.3v9.3c0,0.1,0,0.1,0,0.2c0,0,0.1,0,0.1,0h5.1c0.2,0,0.3,0.1,0.3,0.2
				v1.5c0,0.1,0,0.2-0.1,0.2c-0.1,0.1-0.1,0.1-0.2,0.1h-7.7c-0.1,0-0.2,0-0.3-0.1c-0.1-0.1-0.1-0.1-0.1-0.3V33
				C143,32.7,143.1,32.6,143.3,32.6z"/>
			<path class="st0" d="M163.2,32.6h8.1c0.2,0,0.2,0.1,0.2,0.3l0,1.4c0,0.2-0.1,0.3-0.3,0.3h-5.1c-0.2,0-0.3,0.1-0.3,0.3v2.3
				c0,0.2,0.1,0.3,0.2,0.3h3.4c0.2,0,0.3,0.1,0.3,0.3v1.5c0,0.1-0.1,0.2-0.3,0.2H166c-0.1,0-0.2,0.1-0.2,0.2v2.5c0,0.1,0,0.1,0,0.2
				c0,0,0.1,0,0.1,0h5.5c0.2,0,0.3,0.1,0.3,0.2v1.5c0,0.2-0.1,0.3-0.3,0.3h-8.1c-0.1,0-0.2,0-0.3-0.1c-0.1-0.1-0.1-0.1-0.1-0.3V33
				C163,32.7,163.1,32.6,163.2,32.6z"/>
		</g>
		<g>
			<path d="M185.9,32.6c0.2,0,0.3,0.1,0.3,0.3v11.2c0,0.1,0,0.2-0.1,0.3c-0.1,0.1-0.2,0.1-0.3,0.1h-2c-0.1,0-0.2,0-0.3-0.1
				c-0.1-0.1-0.1-0.1-0.1-0.3V33c0-0.2,0.1-0.3,0.3-0.3H185.9z"/>
			<path d="M197.7,32.9c0-0.1,0-0.2,0.1-0.2s0.1-0.1,0.2-0.1h9.2c0.2,0,0.3,0.1,0.3,0.3v1.5c0,0.2-0.1,0.2-0.3,0.2h-3
				c-0.1,0-0.2,0.1-0.2,0.2v9.4c0,0.2-0.1,0.3-0.3,0.3h-2.3c-0.2,0-0.2-0.1-0.2-0.3v-9.4c0-0.1,0-0.1,0-0.2c0,0-0.1,0-0.1,0H198
				c-0.2,0-0.3-0.1-0.3-0.2V32.9z"/>
			<path d="M229.4,44.3c0,0.1-0.1,0.2-0.2,0.2h-2.4c-0.2,0-0.4-0.1-0.5-0.3l-2.6-5c0-0.1-0.1-0.1-0.1-0.1s-0.1,0.1-0.2,0.2L222,41
				c-0.1,0.1-0.1,0.2-0.1,0.3v2.8c0,0.1,0,0.2-0.1,0.3c-0.1,0.1-0.2,0.1-0.3,0.1h-2c-0.1,0-0.2,0-0.3-0.1c-0.1,0-0.1-0.1-0.1-0.2V33
				c0-0.2,0.1-0.3,0.3-0.3h2.3c0.2,0,0.2,0.1,0.2,0.3v4.8c0,0.1,0,0.2,0.1,0.2c0,0,0.1,0,0.1-0.1l3.9-4.9c0.1-0.1,0.1-0.2,0.2-0.2
				c0.1,0,0.2-0.1,0.3-0.1h1.9c0.1,0,0.2,0,0.2,0.1c0.1,0,0.1,0.1,0.1,0.1c0,0.1,0,0.1-0.1,0.2l-3.1,3.6c-0.1,0.1-0.1,0.1-0.1,0.2
				s0,0.1,0,0.2l3.8,7.1C229.4,44.2,229.4,44.3,229.4,44.3z"/>
		</g>
	</g>
	<g>
		<path class="st0" d="M14.6,26.4c-1.5,2.6-0.6,5.8,1.9,7.3l18.6,11c2.6,1.5,5.8,0.6,7.3-1.9c1.5-2.6,0.6-5.8-1.9-7.3L22,24.5
			C19.4,22.9,16.1,23.8,14.6,26.4z"/>
		<path class="st1" d="M14.5,31.7c1.5,2.6,4.8,3.5,7.3,1.9l18.7-10.8c2.6-1.5,3.5-4.8,1.9-7.3s-4.8-3.5-7.3-1.9L16.5,24.4
			C13.9,25.9,13,29.1,14.5,31.7z"/>
		<path class="st1" d="M42.6,37.5c-1.5-2.6-4.8-3.5-7.3-1.9L16.5,46.3c-2.6,1.5-3.5,4.8-1.9,7.3c1.5,2.6,4.8,3.5,7.3,1.9l18.7-10.8
			C43.2,43.4,44.1,40,42.6,37.5z"/>
	</g>
</g>
</svg>
